<svg width="180" height="29" viewBox="0 0 180 29" fill="none" xmlns="http://www.w3.org/2000/svg">
<path d="M21.9485 15.3643C21.9485 18.0114 21.5032 20.3245 20.6126 22.3037C19.722 24.2705 18.4602 25.7734 16.8274 26.8125C15.1946 27.8516 13.2897 28.3711 11.1126 28.3711C8.98498 28.3711 7.09858 27.8516 5.4534 26.8125C3.80822 25.7611 2.52794 24.2705 1.61258 22.3408C0.709585 20.3988 0.245717 18.1536 0.220978 15.6055V13.6572C0.220978 11.0596 0.672475 8.76497 1.57547 6.77344C2.47846 4.7819 3.75255 3.26042 5.39774 2.20898C7.05529 1.14518 8.94787 0.613281 11.0755 0.613281C13.2402 0.613281 15.1451 1.139 16.7903 2.19043C18.4479 3.22949 19.722 4.74479 20.6126 6.73633C21.5032 8.71549 21.9485 11.0225 21.9485 13.6572V15.3643ZM18.4046 13.6201C18.4046 10.4163 17.7613 7.96094 16.4749 6.25391C15.1884 4.53451 13.3886 3.6748 11.0755 3.6748C8.82417 3.6748 7.0491 4.53451 5.75027 6.25391C4.46382 7.96094 3.80203 10.3359 3.76492 13.3789V15.3643C3.76492 18.4691 4.41434 20.9121 5.71317 22.6934C7.02436 24.4622 8.82417 25.3467 11.1126 25.3467C13.4134 25.3467 15.1946 24.5117 16.4563 22.8418C17.718 21.1595 18.3675 18.7536 18.4046 15.624V13.6201ZM41.4716 20.9492H30.1532L27.6112 28H23.9374L34.2538 0.984375H37.371L47.706 28H44.0507L41.4716 20.9492ZM31.2294 18.0176H40.414L35.8124 5.38184L31.2294 18.0176ZM57.8775 15.4385L54.5748 18.8711V28H51.0123V0.984375H54.5748V14.3438L66.5796 0.984375H70.8843L60.2525 12.915L71.7193 28H67.4517L57.8775 15.4385ZM80.3322 19.4834L80.8517 23.0459L81.6125 19.8359L86.9562 0.984375H89.9621L95.176 19.8359L95.9182 23.1016L96.4933 19.4648L100.687 0.984375H104.268L97.718 28H94.4709L88.9045 8.31348L88.4777 6.25391L88.051 8.31348L82.2805 28H79.0334L72.5021 0.984375H76.0646L80.3322 19.4834ZM128.689 15.3643C128.689 18.0114 128.244 20.3245 127.353 22.3037C126.463 24.2705 125.201 25.7734 123.568 26.8125C121.935 27.8516 120.03 28.3711 117.853 28.3711C115.726 28.3711 113.839 27.8516 112.194 26.8125C110.549 25.7611 109.269 24.2705 108.353 22.3408C107.45 20.3988 106.986 18.1536 106.962 15.6055V13.6572C106.962 11.0596 107.413 8.76497 108.316 6.77344C109.219 4.7819 110.493 3.26042 112.138 2.20898C113.796 1.14518 115.689 0.613281 117.816 0.613281C119.981 0.613281 121.886 1.139 123.531 2.19043C125.189 3.22949 126.463 4.74479 127.353 6.73633C128.244 8.71549 128.689 11.0225 128.689 13.6572V15.3643ZM125.145 13.6201C125.145 10.4163 124.502 7.96094 123.216 6.25391C121.929 4.53451 120.129 3.6748 117.816 3.6748C115.565 3.6748 113.79 4.53451 112.491 6.25391C111.205 7.96094 110.543 10.3359 110.506 13.3789V15.3643C110.506 18.4691 111.155 20.9121 112.454 22.6934C113.765 24.4622 115.565 25.3467 117.853 25.3467C120.154 25.3467 121.935 24.5117 123.197 22.8418C124.459 21.1595 125.108 18.7536 125.145 15.624V13.6201ZM154.484 15.3643C154.484 18.0114 154.039 20.3245 153.148 22.3037C152.257 24.2705 150.996 25.7734 149.363 26.8125C147.73 27.8516 145.825 28.3711 143.648 28.3711C141.52 28.3711 139.634 27.8516 137.989 26.8125C136.344 25.7611 135.063 24.2705 134.148 22.3408C133.245 20.3988 132.781 18.1536 132.756 15.6055V13.6572C132.756 11.0596 133.208 8.76497 134.111 6.77344C135.014 4.7819 136.288 3.26042 137.933 2.20898C139.591 1.14518 141.483 0.613281 143.611 0.613281C145.776 0.613281 147.68 1.139 149.326 2.19043C150.983 3.22949 152.257 4.74479 153.148 6.73633C154.039 8.71549 154.484 11.0225 154.484 13.6572V15.3643ZM150.94 13.6201C150.94 10.4163 150.297 7.96094 149.01 6.25391C147.724 4.53451 145.924 3.6748 143.611 3.6748C141.359 3.6748 139.584 4.53451 138.286 6.25391C136.999 7.96094 136.337 10.3359 136.3 13.3789V15.3643C136.3 18.4691 136.95 20.9121 138.248 22.6934C139.56 24.4622 141.359 25.3467 143.648 25.3467C145.949 25.3467 147.73 24.5117 148.992 22.8418C150.253 21.1595 150.903 18.7536 150.94 15.624V13.6201ZM159.497 28V0.984375H167.123C169.473 0.984375 171.552 1.50391 173.358 2.54297C175.164 3.58203 176.555 5.06022 177.532 6.97754C178.522 8.89486 179.023 11.0967 179.035 13.583V15.3086C179.035 17.8568 178.54 20.0895 177.551 22.0068C176.574 23.9242 175.17 25.3962 173.339 26.4229C171.521 27.4495 169.399 27.9753 166.975 28H159.497ZM163.06 3.91602V25.0869H166.808C169.554 25.0869 171.688 24.2334 173.209 22.5264C174.743 20.8193 175.51 18.3887 175.51 15.2344V13.6572C175.51 10.5895 174.786 8.20833 173.339 6.51367C171.904 4.80664 169.863 3.94076 167.216 3.91602H163.06Z" fill="white"/>
</svg>
